<?xml version="1.0" encoding="UTF-8"?><svg id="Layer_1" xmlns="http://www.w3.org/2000/svg" viewBox="0 0 1114.12 381.85"><path d="m131.98,194.99c2.27-1.14,3.54-1.7,4.74-2.4,24.27-14.06,48.5-28.2,72.85-42.12,3.25-1.86,4.48-3.91,4.36-7.59-.25-8.18-.08-16.37-.08-25.72,8.24,4.71,15.32,9.57,23.05,12.95,8.41,3.69,11.79,8.99,10.34,18.11-.77,4.89-.36,10.01-.06,15,.2,3.34-1.09,5.03-3.91,6.66-35.45,20.43-70.79,41.05-106.24,61.46-3.65,2.1-5.38,4.32-5.17,8.74.4,7.99.11,16.01.11,25.26-7.62-4.38-14.01-8.99-21.1-11.91-10.33-4.26-13.34-10.84-12.98-22.03.95-29.84.39-59.73.24-89.59-.02-3.81.93-6,4.43-7.98,22.22-12.6,44.31-25.45,66.35-38.37,2.81-1.64,4.87-1.8,7.72-.07,9.58,5.81,19.35,11.31,29.69,17.31-3.03,1.81-5.41,3.26-7.83,4.65-20.73,11.97-41.43,24.01-62.24,35.83-3.22,1.83-4.44,3.88-4.36,7.58.24,11.06.09,22.12.09,34.23Z" style="fill:#fff;"/><path d="m265.83,111.59h107.49v26.32h-80.83v41.15h67.17v26.78h-67.14v41.48h80.88v26.56h-107.58V111.59Z" style="fill:#fff;"/><path d="m703.51,121.53c-10.62-6.92-22.43-10.02-35.01-10.11-16.45-.11-32.9-.04-49.35-.01-1.52,0-3.04.24-3.95.31-3.02,16.6-.64,31.3,10.23,44.12,3.55,4.18,6.04,9.27,8.98,13.96,1.76,2.81,3.45,5.67,5.72,9.41h-25.33v94.78h26.31v-6.4c0-18.77.13-37.54-.1-56.31-.05-4.36,1.35-5.55,5.52-5.36,6.6.3,13.22.06,19.84.03,10.49-.04,20.58-2.05,30.14-6.43,15.17-6.95,24.44-18.55,25.9-35.29,1.52-17.46-3.37-32.58-18.9-42.7Zm-7.72,38.97c-.71,8.47-7.11,14.63-17.8,17.53-4.07,1.1-6.7.66-9.12-3.48-7-11.97-14.56-23.62-21.89-35.39.2-.53.41-1.06.62-1.58,9.94.54,19.97.46,29.8,1.79,12.1,1.63,19.28,10.53,18.39,21.13Z" style="fill:#fff;"/><path d="m842.87,134.66c-7.99-13.2-20.81-20.39-35.33-21.71-21.81-1.98-43.84-1.54-66.66-2.16,0,8.2-.3,15.15.13,22.06.21,3.35,1.18,6.99,2.88,9.87,6,10.14,12.46,20,18.75,29.97,1.19,1.88,2.38,3.75,4.19,6.61h-25.46v94.51h26.38v-57.71c0-10.14,0-10.18,10.24-10.14,13.21.06,26.42.45,39.21-4.02,29.14-10.17,41.25-41.52,25.67-67.28Zm-21.54,30.44c-2.77,7.15-14.21,14.52-21.48,13.64-1.03-.12-2.27-1.06-2.85-1.98-7.89-12.5-15.68-25.07-24.53-39.27,11.7.66,21.94.46,31.91,1.98,13.77,2.09,21.34,14.32,16.95,25.63Z" style="fill:#fff;"/><path d="m532.54,106.91c-21.88,56.49-43.18,111.47-64.8,167.29,4.58,0,8.11.06,11.63-.01,5.69-.12,12.51,1.52,16.72-1.07,3.66-2.25,4.63-9.22,6.28-14.27,1-3.04,2.65-3.66,5.51-3.64,16.27.1,32.54.18,48.81-.05,3.8-.06,5.39,1.52,6.49,4.75,1.62,4.71,3.54,9.33,5.37,14.1h28.94c-21.7-55.83-43.09-110.84-64.95-167.1Zm-19.91,124.83c6.55-18.79,12.9-37.04,19.26-55.29.41-.03.81-.05,1.22-.08,6.36,18.17,12.72,36.34,19.38,55.37h-39.86Z" style="fill:#fff;"/><path d="m955.56,273.89h-26.88c0-2.22,0-4.14,0-6.06,0-21.45-.11-42.9.09-64.35.04-4.52-1.13-8.15-3.77-11.81-17.95-24.93-35.72-49.98-53.54-75-1.02-1.43-1.97-2.9-3.54-5.22,11.04,0,21.28-.12,31.51.16,1.27.04,2.7,2.08,3.69,3.45,12.95,17.95,25.83,35.95,39.11,54.46,6.11-8.53,12.01-16.74,17.89-24.97,7.06-9.88,13.97-19.88,21.26-29.59,1.34-1.78,4.15-3.33,6.35-3.42,9.22-.38,18.46-.16,28.51-.16-1.38,2.18-2.24,3.67-3.23,5.06-17.83,25.02-35.61,50.08-53.58,75-2.75,3.81-4.02,7.56-3.97,12.29.22,21.27.09,42.54.09,63.81,0,1.95,0,3.9,0,6.33Z" style="fill:#fff;"/><path d="m213.86,188.5c11.11,6.11,21.27,11.61,31.31,17.34,1.05.6,1.84,2.56,1.86,3.9.15,11.08.19,22.16-.04,33.24-.03,1.53-1.35,3.67-2.7,4.46-22.81,13.33-45.71,26.53-68.67,39.6-1.37.78-3.9.9-5.24.16-10.16-5.58-20.16-11.46-30.99-17.69,2.11-1.32,3.65-2.34,5.25-3.26,21.52-12.36,43.01-24.77,64.62-36.98,3.35-1.89,4.82-3.98,4.71-7.95-.28-10.53-.1-21.06-.1-32.82Z" style="fill:#fff;"/></svg>